<svg xmlns="http://www.w3.org/2000/svg" width="1200" height="900" viewBox="0 0 1200 900" role="img" aria-labelledby="title desc">
<title id="title">Flavoured Makhana product illustration</title><desc id="desc">Premium placeholder illustration for Flavoured Makhana from SOVIRA GLOBAL.</desc>
<defs><linearGradient id="bg" x1="0" y1="0" x2="1" y2="1"><stop stop-color="#0F5132"/><stop offset="1" stop-color="#183D2B"/></linearGradient><radialGradient id="glow" cx=".72" cy=".28" r=".5"><stop stop-color="#C9A227" stop-opacity=".45"/><stop offset="1" stop-color="#C9A227" stop-opacity="0"/></radialGradient></defs>
<rect width="1200" height="900" rx="62" fill="url(#bg)"/><rect width="1200" height="900" rx="62" fill="url(#glow)"/>
<path d="M120 700C285 520 428 548 590 620S860 725 1085 470" fill="none" stroke="#C9A227" stroke-width="3" stroke-dasharray="12 16" opacity=".45"/>
<circle cx="240" cy="350" r="50" fill="#F7F3EA" stroke="#C9A227" stroke-width="8"/><circle cx="228" cy="341" r="12" fill="#E8DDC2"/><circle cx="330" cy="300" r="36" fill="#F7F3EA" stroke="#C9A227" stroke-width="8"/><circle cx="318" cy="291" r="9" fill="#E8DDC2"/><circle cx="420" cy="365" r="44" fill="#F7F3EA" stroke="#C9A227" stroke-width="8"/><circle cx="408" cy="356" r="11" fill="#E8DDC2"/><circle cx="520" cy="295" r="55" fill="#F7F3EA" stroke="#C9A227" stroke-width="8"/><circle cx="508" cy="286" r="14" fill="#E8DDC2"/><circle cx="610" cy="370" r="38" fill="#F7F3EA" stroke="#C9A227" stroke-width="8"/><circle cx="598" cy="361" r="10" fill="#E8DDC2"/><circle cx="715" cy="325" r="50" fill="#F7F3EA" stroke="#C9A227" stroke-width="8"/><circle cx="703" cy="316" r="12" fill="#E8DDC2"/><circle cx="815" cy="370" r="34" fill="#F7F3EA" stroke="#C9A227" stroke-width="8"/><circle cx="803" cy="361" r="8" fill="#E8DDC2"/>
<text x="92" y="112" font-family="Arial, sans-serif" font-size="26" letter-spacing="5" fill="#C9A227" font-weight="700">SOVIRA GLOBAL</text>
<text x="92" y="772" font-family="Georgia, serif" font-size="58" fill="#F7F3EA" font-weight="700">Flavoured Makhana</text>
<text x="96" y="824" font-family="Arial, sans-serif" font-size="25" fill="#E8DDC2">Food &amp; Agricultural Products</text>
</svg>