<svg xmlns="http://www.w3.org/2000/svg" width="1200" height="900" viewBox="0 0 1200 900" role="img" aria-labelledby="title desc">
<title id="title">Jaggery Powder product illustration</title><desc id="desc">Premium placeholder illustration for Jaggery Powder from SOVIRA GLOBAL.</desc>
<defs><linearGradient id="bg" x1="0" y1="0" x2="1" y2="1"><stop stop-color="#0F5132"/><stop offset="1" stop-color="#183D2B"/></linearGradient><radialGradient id="glow" cx=".72" cy=".28" r=".5"><stop stop-color="#C9A227" stop-opacity=".45"/><stop offset="1" stop-color="#C9A227" stop-opacity="0"/></radialGradient></defs>
<rect width="1200" height="900" rx="62" fill="url(#bg)"/><rect width="1200" height="900" rx="62" fill="url(#glow)"/>
<path d="M120 700C285 520 428 548 590 620S860 725 1085 470" fill="none" stroke="#C9A227" stroke-width="3" stroke-dasharray="12 16" opacity=".45"/>
<rect x="260" y="315" width="105" height="105" rx="22" fill="#C9A227"/><path d="M278 345h65M282 373h55" stroke="#F7F3EA" stroke-width="5" opacity=".45"/><rect x="390" y="260" width="105" height="105" rx="22" fill="#C9A227"/><path d="M408 290h65M412 318h55" stroke="#F7F3EA" stroke-width="5" opacity=".45"/><rect x="520" y="335" width="105" height="105" rx="22" fill="#C9A227"/><path d="M538 365h65M542 393h55" stroke="#F7F3EA" stroke-width="5" opacity=".45"/><rect x="650" y="280" width="105" height="105" rx="22" fill="#C9A227"/><path d="M668 310h65M672 338h55" stroke="#F7F3EA" stroke-width="5" opacity=".45"/><rect x="780" y="350" width="105" height="105" rx="22" fill="#C9A227"/><path d="M798 380h65M802 408h55" stroke="#F7F3EA" stroke-width="5" opacity=".45"/>
<text x="92" y="112" font-family="Arial, sans-serif" font-size="26" letter-spacing="5" fill="#C9A227" font-weight="700">SOVIRA GLOBAL</text>
<text x="92" y="772" font-family="Georgia, serif" font-size="58" fill="#F7F3EA" font-weight="700">Jaggery Powder</text>
<text x="96" y="824" font-family="Arial, sans-serif" font-size="25" fill="#E8DDC2">Food &amp; Agricultural Products</text>
</svg>