<svg xmlns="http://www.w3.org/2000/svg" width="1200" height="900" viewBox="0 0 1200 900" role="img" aria-labelledby="title desc">
<title id="title">Millets product illustration</title><desc id="desc">Premium placeholder illustration for Millets from SOVIRA GLOBAL.</desc>
<defs><linearGradient id="bg" x1="0" y1="0" x2="1" y2="1"><stop stop-color="#0F5132"/><stop offset="1" stop-color="#183D2B"/></linearGradient><radialGradient id="glow" cx=".72" cy=".28" r=".5"><stop stop-color="#C9A227" stop-opacity=".45"/><stop offset="1" stop-color="#C9A227" stop-opacity="0"/></radialGradient></defs>
<rect width="1200" height="900" rx="62" fill="url(#bg)"/><rect width="1200" height="900" rx="62" fill="url(#glow)"/>
<path d="M120 700C285 520 428 548 590 620S860 725 1085 470" fill="none" stroke="#C9A227" stroke-width="3" stroke-dasharray="12 16" opacity=".45"/>
<ellipse cx="250" cy="270" rx="26" ry="15" fill="#C9A227" transform="rotate(0 250 270)"/><ellipse cx="325" cy="270" rx="26" ry="15" fill="#C9A227" transform="rotate(12 325 270)"/><ellipse cx="400" cy="270" rx="26" ry="15" fill="#C9A227" transform="rotate(24 400 270)"/><ellipse cx="475" cy="270" rx="26" ry="15" fill="#C9A227" transform="rotate(36 475 270)"/><ellipse cx="550" cy="270" rx="26" ry="15" fill="#C9A227" transform="rotate(48 550 270)"/><ellipse cx="625" cy="270" rx="26" ry="15" fill="#C9A227" transform="rotate(60 625 270)"/><ellipse cx="700" cy="270" rx="26" ry="15" fill="#C9A227" transform="rotate(72 700 270)"/><ellipse cx="775" cy="270" rx="26" ry="15" fill="#C9A227" transform="rotate(84 775 270)"/><ellipse cx="276" cy="338" rx="26" ry="15" fill="#C9A227" transform="rotate(-12 276 338)"/><ellipse cx="351" cy="338" rx="26" ry="15" fill="#C9A227" transform="rotate(0 351 338)"/><ellipse cx="426" cy="338" rx="26" ry="15" fill="#C9A227" transform="rotate(12 426 338)"/><ellipse cx="501" cy="338" rx="26" ry="15" fill="#C9A227" transform="rotate(24 501 338)"/><ellipse cx="576" cy="338" rx="26" ry="15" fill="#C9A227" transform="rotate(36 576 338)"/><ellipse cx="651" cy="338" rx="26" ry="15" fill="#C9A227" transform="rotate(48 651 338)"/><ellipse cx="726" cy="338" rx="26" ry="15" fill="#C9A227" transform="rotate(60 726 338)"/><ellipse cx="801" cy="338" rx="26" ry="15" fill="#C9A227" transform="rotate(72 801 338)"/><ellipse cx="250" cy="406" rx="26" ry="15" fill="#C9A227" transform="rotate(-24 250 406)"/><ellipse cx="325" cy="406" rx="26" ry="15" fill="#C9A227" transform="rotate(-12 325 406)"/><ellipse cx="400" cy="406" rx="26" ry="15" fill="#C9A227" transform="rotate(0 400 406)"/><ellipse cx="475" cy="406" rx="26" ry="15" fill="#C9A227" transform="rotate(12 475 406)"/><ellipse cx="550" cy="406" rx="26" ry="15" fill="#C9A227" transform="rotate(24 550 406)"/><ellipse cx="625" cy="406" rx="26" ry="15" fill="#C9A227" transform="rotate(36 625 406)"/><ellipse cx="700" cy="406" rx="26" ry="15" fill="#C9A227" transform="rotate(48 700 406)"/><ellipse cx="775" cy="406" rx="26" ry="15" fill="#C9A227" transform="rotate(60 775 406)"/><ellipse cx="276" cy="474" rx="26" ry="15" fill="#C9A227" transform="rotate(-36 276 474)"/><ellipse cx="351" cy="474" rx="26" ry="15" fill="#C9A227" transform="rotate(-24 351 474)"/><ellipse cx="426" cy="474" rx="26" ry="15" fill="#C9A227" transform="rotate(-12 426 474)"/><ellipse cx="501" cy="474" rx="26" ry="15" fill="#C9A227" transform="rotate(0 501 474)"/><ellipse cx="576" cy="474" rx="26" ry="15" fill="#C9A227" transform="rotate(12 576 474)"/><ellipse cx="651" cy="474" rx="26" ry="15" fill="#C9A227" transform="rotate(24 651 474)"/><ellipse cx="726" cy="474" rx="26" ry="15" fill="#C9A227" transform="rotate(36 726 474)"/><ellipse cx="801" cy="474" rx="26" ry="15" fill="#C9A227" transform="rotate(48 801 474)"/>
<text x="92" y="112" font-family="Arial, sans-serif" font-size="26" letter-spacing="5" fill="#C9A227" font-weight="700">SOVIRA GLOBAL</text>
<text x="92" y="772" font-family="Georgia, serif" font-size="58" fill="#F7F3EA" font-weight="700">Millets</text>
<text x="96" y="824" font-family="Arial, sans-serif" font-size="25" fill="#E8DDC2">Food &amp; Agricultural Products</text>
</svg>