<svg xmlns="http://www.w3.org/2000/svg" width="1200" height="900" viewBox="0 0 1200 900" role="img" aria-labelledby="title desc">
<title id="title">Private Label Manufacturing product illustration</title><desc id="desc">Premium placeholder illustration for Private Label Manufacturing from SOVIRA GLOBAL.</desc>
<defs><linearGradient id="bg" x1="0" y1="0" x2="1" y2="1"><stop stop-color="#0F5132"/><stop offset="1" stop-color="#183D2B"/></linearGradient><radialGradient id="glow" cx=".72" cy=".28" r=".5"><stop stop-color="#C9A227" stop-opacity=".45"/><stop offset="1" stop-color="#C9A227" stop-opacity="0"/></radialGradient></defs>
<rect width="1200" height="900" rx="62" fill="url(#bg)"/><rect width="1200" height="900" rx="62" fill="url(#glow)"/>
<path d="M120 700C285 520 428 548 590 620S860 725 1085 470" fill="none" stroke="#C9A227" stroke-width="3" stroke-dasharray="12 16" opacity=".45"/>
<path d="M295 300l170-85 170 85-170 85z" fill="#C9A227"/><path d="M295 300v185l170 90V385z" fill="#E8DDC2"/><path d="M635 300v185l-170 90V385z" fill="#F7F3EA"/><path d="M665 340l120-60 120 60-120 64z" fill="#C9A227" opacity=".9"/><path d="M665 340v130l120 64V404z" fill="#E8DDC2"/><path d="M905 340v130l-120 64V404z" fill="#F7F3EA"/>
<text x="92" y="112" font-family="Arial, sans-serif" font-size="26" letter-spacing="5" fill="#C9A227" font-weight="700">SOVIRA GLOBAL</text>
<text x="92" y="772" font-family="Georgia, serif" font-size="58" fill="#F7F3EA" font-weight="700">Private Label Manufacturing</text>
<text x="96" y="824" font-family="Arial, sans-serif" font-size="25" fill="#E8DDC2">Solutions</text>
</svg>