<svg xmlns="http://www.w3.org/2000/svg" width="1200" height="900" viewBox="0 0 1200 900" role="img" aria-labelledby="title desc">
<title id="title">Tea Premix product illustration</title><desc id="desc">Premium placeholder illustration for Tea Premix from SOVIRA GLOBAL.</desc>
<defs><linearGradient id="bg" x1="0" y1="0" x2="1" y2="1"><stop stop-color="#0F5132"/><stop offset="1" stop-color="#183D2B"/></linearGradient><radialGradient id="glow" cx=".72" cy=".28" r=".5"><stop stop-color="#C9A227" stop-opacity=".45"/><stop offset="1" stop-color="#C9A227" stop-opacity="0"/></radialGradient></defs>
<rect width="1200" height="900" rx="62" fill="url(#bg)"/><rect width="1200" height="900" rx="62" fill="url(#glow)"/>
<path d="M120 700C285 520 428 548 590 620S860 725 1085 470" fill="none" stroke="#C9A227" stroke-width="3" stroke-dasharray="12 16" opacity=".45"/>
<rect x="260" y="280" width="130" height="190" rx="18" fill="#F7F3EA" stroke="#C9A227" stroke-width="7" transform="rotate(-10 325 375)"/><circle cx="325" cy="366" r="30" fill="#0F5132" opacity=".9"/><rect x="420" y="330" width="130" height="190" rx="18" fill="#F7F3EA" stroke="#C9A227" stroke-width="7" transform="rotate(12 485 425)"/><circle cx="485" cy="416" r="30" fill="#0F5132" opacity=".9"/><rect x="580" y="275" width="130" height="190" rx="18" fill="#F7F3EA" stroke="#C9A227" stroke-width="7" transform="rotate(-6 645 370)"/><circle cx="645" cy="361" r="30" fill="#0F5132" opacity=".9"/><rect x="740" y="330" width="130" height="190" rx="18" fill="#F7F3EA" stroke="#C9A227" stroke-width="7" transform="rotate(10 805 425)"/><circle cx="805" cy="416" r="30" fill="#0F5132" opacity=".9"/>
<text x="92" y="112" font-family="Arial, sans-serif" font-size="26" letter-spacing="5" fill="#C9A227" font-weight="700">SOVIRA GLOBAL</text>
<text x="92" y="772" font-family="Georgia, serif" font-size="58" fill="#F7F3EA" font-weight="700">Tea Premix</text>
<text x="96" y="824" font-family="Arial, sans-serif" font-size="25" fill="#E8DDC2">Food &amp; Agricultural Products</text>
</svg>