<svg xmlns="http://www.w3.org/2000/svg" width="1200" height="900" viewBox="0 0 1200 900" role="img" aria-labelledby="title desc">
<title id="title">Turmeric Powder product illustration</title><desc id="desc">Premium placeholder illustration for Turmeric Powder from SOVIRA GLOBAL.</desc>
<defs><linearGradient id="bg" x1="0" y1="0" x2="1" y2="1"><stop stop-color="#0F5132"/><stop offset="1" stop-color="#183D2B"/></linearGradient><radialGradient id="glow" cx=".72" cy=".28" r=".5"><stop stop-color="#C9A227" stop-opacity=".45"/><stop offset="1" stop-color="#C9A227" stop-opacity="0"/></radialGradient></defs>
<rect width="1200" height="900" rx="62" fill="url(#bg)"/><rect width="1200" height="900" rx="62" fill="url(#glow)"/>
<path d="M120 700C285 520 428 548 590 620S860 725 1085 470" fill="none" stroke="#C9A227" stroke-width="3" stroke-dasharray="12 16" opacity=".45"/>
<rect x="280" y="270" width="54" height="230" rx="27" fill="#C9A227" transform="rotate(-16 307 385.0)"/><path d="M292 298h30" stroke="#F7F3EA" stroke-width="5" opacity=".5"/><rect x="390" y="255" width="54" height="250" rx="27" fill="#C9A227" transform="rotate(8 417 380.0)"/><path d="M402 283h30" stroke="#F7F3EA" stroke-width="5" opacity=".5"/><rect x="505" y="280" width="54" height="220" rx="27" fill="#C9A227" transform="rotate(-4 532 390.0)"/><path d="M517 308h30" stroke="#F7F3EA" stroke-width="5" opacity=".5"/><rect x="620" y="250" width="54" height="250" rx="27" fill="#C9A227" transform="rotate(15 647 375.0)"/><path d="M632 278h30" stroke="#F7F3EA" stroke-width="5" opacity=".5"/><rect x="740" y="282" width="54" height="210" rx="27" fill="#C9A227" transform="rotate(-10 767 387.0)"/><path d="M752 310h30" stroke="#F7F3EA" stroke-width="5" opacity=".5"/>
<text x="92" y="112" font-family="Arial, sans-serif" font-size="26" letter-spacing="5" fill="#C9A227" font-weight="700">SOVIRA GLOBAL</text>
<text x="92" y="772" font-family="Georgia, serif" font-size="58" fill="#F7F3EA" font-weight="700">Turmeric Powder</text>
<text x="96" y="824" font-family="Arial, sans-serif" font-size="25" fill="#E8DDC2">Food &amp; Agricultural Products</text>
</svg>